<svg xmlns="http://www.w3.org/2000/svg" xmlns:xlink="http://www.w3.org/1999/xlink" width="500" zoomAndPan="magnify" viewBox="0 0 375 374.999991" height="500" preserveAspectRatio="xMidYMid meet" version="1.0"><defs><g/></defs><g fill="#00c1d4" fill-opacity="1"><g transform="translate(17.291003, 261.643892)"><g><path d="M 43.921875 0 L 18.34375 0 L 18.34375 -141.140625 L 54.828125 -141.140625 L 90.546875 -37.359375 L 92.578125 -37.359375 L 128.109375 -141.140625 L 163.71875 -141.140625 L 163.71875 0 L 137.265625 0 L 137.265625 -93.25 L 134.859375 -93.640625 L 102.234375 0 L 78.96875 0 L 46.34375 -93.640625 L 43.921875 -93.25 Z M 43.921875 0 "/></g></g></g><g fill="#00c1d4" fill-opacity="1"><g transform="translate(199.44713, 261.643892)"><g><path d="M 18.34375 0 L 18.34375 -141.140625 L 78.578125 -141.140625 C 87.265625 -141.140625 94.613281 -139.769531 100.625 -137.03125 C 106.644531 -134.289062 111.203125 -130.394531 114.296875 -125.34375 C 117.390625 -120.289062 118.9375 -114.320312 118.9375 -107.4375 C 118.9375 -101.195312 117.421875 -95.695312 114.390625 -90.9375 C 111.367188 -86.175781 107.023438 -82.347656 101.359375 -79.453125 L 101.359375 -77.421875 C 110.242188 -75.109375 117.097656 -70.894531 121.921875 -64.78125 C 126.742188 -58.664062 129.15625 -51.164062 129.15625 -42.28125 C 129.15625 -28.769531 125.082031 -18.34375 116.9375 -11 C 108.800781 -3.664062 96.722656 0 80.703125 0 Z M 72.78125 -84.859375 C 85.78125 -84.859375 92.28125 -90.710938 92.28125 -102.421875 C 92.28125 -108.410156 90.671875 -112.867188 87.453125 -115.796875 C 84.242188 -118.722656 79.351562 -120.1875 72.78125 -120.1875 L 46.234375 -120.1875 L 46.234375 -84.859375 Z M 77.90625 -22.109375 C 93.28125 -22.109375 100.96875 -29.085938 100.96875 -43.046875 C 100.96875 -57.078125 93.28125 -64.09375 77.90625 -64.09375 L 46.234375 -64.09375 L 46.234375 -22.109375 Z M 77.90625 -22.109375 "/></g></g></g><g fill="#f8485e" fill-opacity="1"><g transform="translate(27.386721, 257.149301)"><g><path d="M 43.921875 0 L 18.34375 0 L 18.34375 -141.140625 L 54.84375 -141.140625 L 90.5625 -37.359375 L 92.578125 -37.359375 L 128.109375 -141.140625 L 163.734375 -141.140625 L 163.734375 0 L 137.28125 0 L 137.28125 -93.265625 L 134.875 -93.640625 L 102.234375 0 L 78.96875 0 L 46.34375 -93.640625 L 43.921875 -93.265625 Z M 43.921875 0 "/></g></g><g transform="translate(209.558685, 257.149301)"><g><path d="M 18.34375 0 L 18.34375 -141.140625 L 78.578125 -141.140625 C 87.273438 -141.140625 94.628906 -139.769531 100.640625 -137.03125 C 106.660156 -134.300781 111.210938 -130.410156 114.296875 -125.359375 C 117.390625 -120.304688 118.9375 -114.335938 118.9375 -107.453125 C 118.9375 -101.210938 117.421875 -95.707031 114.390625 -90.9375 C 111.367188 -86.175781 107.03125 -82.347656 101.375 -79.453125 L 101.375 -77.421875 C 110.25 -75.109375 117.097656 -70.894531 121.921875 -64.78125 C 126.753906 -58.664062 129.171875 -51.164062 129.171875 -42.28125 C 129.171875 -28.769531 125.097656 -18.34375 116.953125 -11 C 108.816406 -3.664062 96.734375 0 80.703125 0 Z M 72.796875 -84.859375 C 85.796875 -84.859375 92.296875 -90.71875 92.296875 -102.4375 C 92.296875 -108.414062 90.6875 -112.867188 87.46875 -115.796875 C 84.25 -118.722656 79.359375 -120.1875 72.796875 -120.1875 L 46.25 -120.1875 L 46.25 -84.859375 Z M 77.90625 -22.109375 C 93.289062 -22.109375 100.984375 -29.09375 100.984375 -43.0625 C 100.984375 -57.09375 93.289062 -64.109375 77.90625 -64.109375 L 46.25 -64.109375 L 46.25 -22.109375 Z M 77.90625 -22.109375 "/></g></g></g></svg>